<svg xmlns="http://www.w3.org/2000/svg" width="32" height="32" viewBox="0 0 100 100" fill="none">
  <defs>
    <linearGradient id="fg" x1="6" y1="14" x2="94" y2="90" gradientUnits="userSpaceOnUse">
      <stop offset="0" stop-color="#34d399"/>
      <stop offset="0.5" stop-color="#22d3ee"/>
      <stop offset="1" stop-color="#6366f1"/>
    </linearGradient>
    <radialGradient id="fc" cx="0.5" cy="0.5" r="0.5">
      <stop offset="0" stop-color="#ffffff"/>
      <stop offset="0.5" stop-color="#a7f3e0"/>
      <stop offset="1" stop-color="#22d3ee" stop-opacity="0"/>
    </radialGradient>
  </defs>
  <circle cx="50" cy="50" r="46" fill="#0a0a14" stroke="url(#fg)" stroke-width="4"/>
  <g stroke="url(#fg)" stroke-width="4" stroke-linecap="round" stroke-linejoin="round" fill="none">
    <path d="M50 22 C40 20 30 22 27 30 C20 31 18 39 24 43 C18 46 19 55 26 56 C25 64 32 72 44 72 C48 74 50 72 50 68"/>
    <path d="M50 22 V78" stroke-width="3" opacity="0.55"/>
    <path d="M50 46 L38 40 L30 40 M50 46 L36 54 L30 58"/>
    <path d="M50 46 L66 38 L78 38 M50 46 L70 46 L82 46 M50 46 L68 56 L80 62"/>
  </g>
  <g fill="#34d399"><circle cx="30" cy="40" r="4"/><circle cx="30" cy="58" r="4"/></g>
  <g fill="#22d3ee"><rect x="78" y="35" width="9" height="6" rx="1.5"/><rect x="82" y="43" width="9" height="6" rx="1.5"/><rect x="80" y="59" width="9" height="6" rx="1.5"/></g>
  <circle cx="50" cy="46" r="10" fill="url(#fc)"/>
  <circle cx="50" cy="46" r="3" fill="#ffffff"/>
</svg>
